<svg xmlns="http://www.w3.org/2000/svg" width="1000" height="680" viewBox="0 0 1000 680" role="img" aria-labelledby="title desc">
  <!-- OPTICAL_GLASS_SYSTEM_START -->
  <defs>
    <clipPath id="glassPaneClip"><rect x="12" y="12" width="976" height="656" rx="36"/></clipPath>
    <clipPath id="canvasSafe"><rect x="2" y="2" width="996" height="676" rx="8"/></clipPath>
    <linearGradient id="opticalGlassBody" x1="0" y1="0" x2="1" y2="1">
      <stop offset="0" stop-color="#FFFFFF" stop-opacity=".13"/>
      <stop offset=".34" stop-color="#FFFFFF" stop-opacity=".08"/>
      <stop offset=".68" stop-color="#3a434b" stop-opacity=".052"/>
      <stop offset="1" stop-color="#F3F4FA" stop-opacity=".032"/>
    </linearGradient>
    <linearGradient id="sideDepth" x1="0" y1="0" x2="1" y2="0">
      <stop offset="0" stop-color="#E7F8EC" stop-opacity=".14"/>
      <stop offset=".34" stop-color="#DFF7E7" stop-opacity=".09"/>
      <stop offset=".72" stop-color="#F3F4FA" stop-opacity=".032"/>
      <stop offset="1" stop-color="#F3F4FA" stop-opacity="0"/>
    </linearGradient>
    <radialGradient id="ambientLight" cx="16%" cy="3%" r="72%">
      <stop offset="0" stop-color="#FFFFFF" stop-opacity=".17"/>
      <stop offset=".28" stop-color="#FFFFFF" stop-opacity=".048"/>
      <stop offset=".72" stop-color="#FFFFFF" stop-opacity="0"/>
    </radialGradient>
    <linearGradient id="lowerShade" x1="0" y1="0" x2="0" y2="1">
      <stop offset=".68" stop-color="#111827" stop-opacity="0"/>
      <stop offset="1" stop-color="#111827" stop-opacity=".052"/>
    </linearGradient>
    <linearGradient id="outerEdge" x1="0" y1="0" x2="1" y2="1">
      <stop offset="0" stop-color="#FFFFFF" stop-opacity=".82"/>
      <stop offset=".28" stop-color="#FFFFFF" stop-opacity=".48"/>
      <stop offset=".62" stop-color="#FFFFFF" stop-opacity=".22"/>
      <stop offset="1" stop-color="#FFFFFF" stop-opacity=".13"/>
    </linearGradient>
    <linearGradient id="innerEdge" x1="0" y1="0" x2="1" y2="1">
      <stop offset="0" stop-color="#7EE787" stop-opacity=".46"/>
      <stop offset=".5" stop-color="#FFFFFF" stop-opacity=".17"/>
      <stop offset="1" stop-color="#111827" stop-opacity=".08"/>
    </linearGradient>
    <linearGradient id="chipGlass" x1="0" y1="0" x2="0" y2="1">
      <stop offset="0" stop-color="#E7F8EC" stop-opacity=".22"/>
      <stop offset=".52" stop-color="#FFFFFF" stop-opacity=".125"/>
      <stop offset="1" stop-color="#DFF7E7" stop-opacity=".09"/>
    </linearGradient>
    <linearGradient id="chipEdge" x1="0" y1="0" x2="1" y2="1">
      <stop offset="0" stop-color="#7EE787" stop-opacity=".62"/>
      <stop offset=".5" stop-color="#FFFFFF" stop-opacity=".26"/>
      <stop offset="1" stop-color="#111827" stop-opacity=".12"/>
    </linearGradient>
    <radialGradient id="emeraldField" cx="58%" cy="48%" r="70%">
      <stop offset="0" stop-color="#3FB950" stop-opacity=".075"/>
      <stop offset=".48" stop-color="#2EA043" stop-opacity=".025"/>
      <stop offset="1" stop-color="#2EA043" stop-opacity="0"/>
    </radialGradient>
    <filter id="contactShadow" x="-20%" y="-20%" width="140%" height="150%">
      <feGaussianBlur stdDeviation="6"/>
    </filter>
    <filter id="suspensionShadow" x="-25%" y="-25%" width="150%" height="165%">
      <feGaussianBlur stdDeviation="18"/>
    </filter>
    <filter id="specularSoft" x="-10%" y="-30%" width="120%" height="160%">
      <feGaussianBlur stdDeviation="1.1"/>
    </filter>
  </defs>
  <g aria-hidden="true">
    <g clip-path="url(#canvasSafe)">
      <rect x="15" y="23" width="970" height="650" rx="36" fill="none" stroke="#111827" stroke-opacity=".10" stroke-width="5" filter="url(#suspensionShadow)"/>
      <rect x="14" y="17" width="972" height="652" rx="36" fill="none" stroke="#111827" stroke-opacity=".15" stroke-width="2" filter="url(#contactShadow)"/>
    </g>
    <rect x="12" y="12" width="976" height="656" rx="36" fill="url(#opticalGlassBody)"/>
    <g clip-path="url(#glassPaneClip)">
      <rect x="12" y="12" width="331.8" height="656" fill="url(#sideDepth)"/>
      <rect x="12" y="12" width="976" height="656" fill="url(#ambientLight)"/>
      <rect x="12" y="12" width="976" height="656" fill="url(#lowerShade)"/>
      <rect x="12" y="12" width="976" height="656" fill="url(#emeraldField)"/>
      <path d="M 20 16 V 648" fill="none" stroke="#1F2937" stroke-opacity=".055" stroke-width="2.2" filter="url(#specularSoft)"/>
    </g>
    <rect x="12.7" y="12.7" width="974.6" height="654.6" rx="36" fill="none" stroke="url(#outerEdge)" stroke-width="1.55"/>
    <rect x="14.2" y="14.2" width="971.6" height="651.6" rx="33.8" fill="none" stroke="url(#innerEdge)" stroke-width=".9"/>
    <path d="M 46 650 H 382.9 M 753.8 32 H 954" fill="none" stroke="#3FB950" stroke-opacity=".24" stroke-width="1"/>
    <path d="M 34.3 12.7 C 187.7 11.8, 304.8 12.2, 421.9 12.7" fill="none" stroke="#FFFFFF" stroke-opacity=".82" stroke-width="1.65" stroke-linecap="round" filter="url(#specularSoft)"/>
    <path d="M 24.2 40.1 C 11.8 156.3, 12.4 313.8, 13.0 418.7" fill="none" stroke="#FFFFFF" stroke-opacity=".52" stroke-width="1.35" stroke-linecap="round"/>
    <path d="M 921.4 12.7 C 945.5 12.0, 968.2 14.0, 977.2 25.7" fill="none" stroke="#FFFFFF" stroke-opacity=".68" stroke-width="1.45" stroke-linecap="round" filter="url(#specularSoft)"/>
    <path d="M 987.1 195.7 V 294.1" fill="none" stroke="#FFFFFF" stroke-opacity=".27" stroke-width="1.1" stroke-linecap="round"/>
    <path d="M 675.7 667.1 H 962.1" fill="none" stroke="#FFFFFF" stroke-opacity=".16" stroke-width="1" stroke-linecap="round"/>
    <path d="M 783.0 665.3 H 965.7 M 985.3 372.8 V 642.8" fill="none" stroke="#111827" stroke-opacity=".075" stroke-width="1.05" stroke-linecap="round"/>
    <path d="M 42 666.0 Q 70 663.0 104 666.0" fill="none" stroke="#FFFFFF" stroke-opacity=".13" stroke-width="1.2" stroke-linecap="round" filter="url(#specularSoft)"/>
  </g>
  <!-- OPTICAL_GLASS_SYSTEM_END -->

<title id="title">Sha-Lai Berends ASCII profile identity</title>
  <desc id="desc">ASCII portrait profile card for berendsshalai with GitHub-green telemetry labels and updated repositories.</desc>
  <style>
    .bg{fill:none;stroke:none}
    .ascii{fill:#66707a;font:700 14px "IBM Plex Mono","JetBrains Mono",Consolas,Menlo,monospace}
    .handle{fill:#3fb950;font:800 15px "IBM Plex Mono","JetBrains Mono",Consolas,Menlo,monospace}
    .rule{fill:#30363d;font:700 14px "IBM Plex Mono","JetBrains Mono",Consolas,Menlo,monospace}
    .label{fill:#3fb950;font:800 14px "IBM Plex Mono","JetBrains Mono",Consolas,Menlo,monospace}
    .value{fill:#3a434b;font:500 14px Inter,-apple-system,BlinkMacSystemFont,"Segoe UI",Arial,sans-serif}
    .muted{fill:#66707a;font:700 14px "IBM Plex Mono","JetBrains Mono",Consolas,Menlo,monospace}
    .stackLabel{fill:#3a434b;font:700 8px "IBM Plex Mono","JetBrains Mono",Consolas,Menlo,monospace;text-anchor:middle}
    .stackTile{fill:url(#chipGlass);stroke:url(#chipEdge);stroke-width:.8}
  </style>

  <text x="34" y="36" class="ascii">                     .:--:::.</text>
  <text x="430" y="36" class="handle">berendsshalai</text>

  <text x="34" y="58" class="ascii">              ...:..:*##**=-:.</text>
  <text x="430" y="58" class="rule">---------------------------------------------</text>

  <text x="34" y="80" class="ascii">            :=**###%%@@%%%###=-:.</text>
  <text x="430" y="80" class="label">Name</text><text x="535" y="80" class="value">: Sha-Lai Berends</text>

  <text x="34" y="102" class="ascii">          -*##%@%%@@@@@%%@@@@%%#**-.</text>
  <text x="430" y="102" class="label">Location</text><text x="535" y="102" class="value">: South Africa</text>

  <text x="34" y="124" class="ascii">      ..:=###%%%%%%%@@@@%%@@%%%%#%%*..:</text>
  <text x="430" y="124" class="label">Role</text><text x="535" y="124" class="value">: Business Automation &amp; Data Operations</text>

  <text x="34" y="146" class="ascii">     .=*##%%@@@@@@@@@@@@@@@@%%%##%%%#*.</text>
  <text x="430" y="146" class="label">Mode</text><text x="535" y="146" class="value">: Systems builder / open-source educator</text>

  <text x="34" y="168" class="ascii">     -#@@@@@%%%%%@@%%%@@@@@%%%%%%%%%%*-</text>
  <text x="430" y="168" class="label">Focus</text><text x="535" y="168" class="value">: Payroll, attendance, reconciliation,</text>

  <text x="34" y="190" class="ascii">     :#@@@@@@@@%%%%###%%%@@@@%%%%%%%%%*.</text>
  <text x="535" y="190" class="value">  recruitment and operational workflows</text>

  <text x="34" y="212" class="ascii">      :*@@@@@%%%####**####%%%%%%%%####-</text>
  <text x="430" y="212" class="label">Code</text><text x="535" y="212" class="value">: Python, TypeScript, JavaScript, Java</text>

  <text x="34" y="234" class="ascii">       .-*%%%%%##***************##%#*:</text>
  <text x="430" y="234" class="label">Data</text><text x="535" y="234" class="value">: SQL, SQLite, Excel, VBA, Xero</text>

  <text x="34" y="256" class="ascii">         :%%%%%%#*+##*******=--::=++:</text>
  <text x="430" y="256" class="label">Web</text><text x="535" y="256" class="value">: React, Vite, HTML, CSS, FastAPI</text>

  <text x="34" y="278" class="ascii">      .*--%%%%@@%%#**##%%%#*+=:.....</text>
  <text x="430" y="278" class="label">Workflow</text><text x="535" y="278" class="value">: GitHub Actions, Outlook, MCP</text>

  <text x="34" y="300" class="ascii">       *-*##%%%%%%%+=+%%%%*++=:...:-=.</text>
  <text x="430" y="300" class="label">AI</text><text x="535" y="300" class="value">: Azure AI, Claude, Bedrock, Copilot</text>

  <text x="34" y="322" class="ascii">       +=*#####%%%#=-=+##*=---:..:===.</text>
  <text x="430" y="322" class="label">Method</text><text x="535" y="322" class="value">: Privacy, auditability, validation</text>

  <text x="34" y="344" class="ascii">       :=+%###%%%#*=--=+**++=-:..:=+.</text>
  <text x="430" y="344" class="label">Current</text><text x="535" y="344" class="value">: Open-sourcing practical operations tools</text>

  <text x="34" y="366" class="ascii">         +%###%%##+===++++++=-:.--:</text>

  <text x="34" y="388" class="ascii">         +%##%%%%%***++=======-.</text>
  <text x="430" y="388" class="label">Repositories</text>

  <text x="34" y="410" class="ascii">         :%#%%%%%%%#***+---===:.</text>
  <text x="430" y="410" class="rule">---------------------------------------------</text>

  <text x="34" y="432" class="ascii">          -*%%%%%%#**+**==++++-</text>
  <text x="430" y="432" class="value">attendance-reconciliation-engine</text>

  <text x="34" y="454" class="ascii">           .#@%%%%#*++++++***=:.</text>
  <text x="430" y="454" class="value">berendsshalai-systems-lab</text>

  <text x="34" y="476" class="ascii">            -%@%%##**#*###**==--.</text>
  <text x="430" y="476" class="value">onboarding-pilot-ai</text>

  <text x="34" y="498" class="ascii">             -+%%%%%%%%%##**+==++---.</text>
  <text x="430" y="498" class="value">berendsshalai-project-systemtoportfolio</text>

  <text x="34" y="520" class="ascii">             ::#%#########****#%@@@@%+:.</text>
  <text x="430" y="520" class="value">berendsshalai</text>

  <text x="34" y="542" class="ascii">             .-*%##########%%@@@@@@@@@@#=.</text>
  <text x="430" y="542" class="label">Technology stack</text>

  <text x="34" y="564" class="ascii">            :=+*#######%%@@@@@@@@@@@@@@@@%</text>
  <text x="430" y="560" class="rule">---------------------------------------------</text>
  <text x="34" y="586" class="ascii">           .-+*#########%%@@@@@@@@@@@@@@@@@#:</text>
  <text x="34" y="608" class="ascii">          .:=+**#######%%%%@@@@@@@@@@@@@@%*-.</text>
  <text x="34" y="630" class="ascii">         .:-=++***#####%%%%%%%%@@@@@@%%#*=:.</text>
  <text x="34" y="652" class="ascii">       ..:--==+++****#####%%%%%%%##*+=-:.</text>

  <g aria-label="Technology stack icons">
    <!-- Row 1: web and application engineering -->
    <g transform="translate(430 571)" aria-label="HTML5"><title>HTML5</title><rect width="54" height="42" rx="9" class="stackTile"/><path d="M18 8h18l-2 22-7 2-7-2z" fill="#E44D26"/><path d="M27 11v17l4-1 1-5h-5v-4h6l.5-6z" fill="#F16529"/><path d="M21 12h6v4h-5.6l.4 3H27v4h-8z" fill="#fff"/><text x="27" y="39" class="stackLabel">HTML</text></g>
    <g transform="translate(496 571)" aria-label="CSS3"><title>CSS3</title><rect width="54" height="42" rx="9" class="stackTile"/><path d="M18 8h18l-2 22-7 2-7-2z" fill="#1572B6"/><path d="M27 11v17l4-1 1-5h-5v-4h6l.5-6z" fill="#33A9DC"/><path d="M21 12h6v4h-5.6l.4 3H27v4h-8z" fill="#fff"/><text x="27" y="39" class="stackLabel">CSS</text></g>
    <g transform="translate(562 571)" aria-label="JavaScript"><title>JavaScript</title><rect width="54" height="42" rx="9" class="stackTile"/><rect x="16" y="7" width="22" height="22" rx="3" fill="#F0DB4F"/><text x="27" y="25" text-anchor="middle" fill="#323330" font-family="Arial,sans-serif" font-size="13" font-weight="900">JS</text><text x="27" y="39" class="stackLabel">JS</text></g>
    <g transform="translate(628 571)" aria-label="TypeScript"><title>TypeScript</title><rect width="54" height="42" rx="9" class="stackTile"/><rect x="16" y="7" width="22" height="22" rx="3" fill="#3178C6"/><text x="27" y="25" text-anchor="middle" fill="#fff" font-family="Arial,sans-serif" font-size="12" font-weight="900">TS</text><text x="27" y="39" class="stackLabel">TS</text></g>
    <g transform="translate(694 571)" aria-label="React"><title>React</title><rect width="54" height="42" rx="9" class="stackTile"/><g transform="translate(27 18)" fill="none" stroke="#61DAFB" stroke-width="1.7"><ellipse rx="13" ry="5"/><ellipse rx="13" ry="5" transform="rotate(60)"/><ellipse rx="13" ry="5" transform="rotate(120)"/></g><circle cx="27" cy="18" r="2.8" fill="#61DAFB"/><text x="27" y="39" class="stackLabel">REACT</text></g>
    <g transform="translate(760 571)" aria-label="Python"><title>Python</title><rect width="54" height="42" rx="9" class="stackTile"/><path d="M18 10q0-5 9-5t9 5v7H25v3H15v-7q0-3 3-3z" fill="#3776AB"/><circle cx="31" cy="9" r="1.2" fill="#fff"/><path d="M36 26q0 5-9 5t-9-5v-7h11v-3h10v7q0 3-3 3z" fill="#FFD43B"/><circle cx="23" cy="27" r="1.2" fill="#fff"/><text x="27" y="39" class="stackLabel">PYTHON</text></g>
    <g transform="translate(826 571)" aria-label="Java"><title>Java</title><rect width="54" height="42" rx="9" class="stackTile"/><path d="M23 7c8 4-5 7 4 11M29 5c9 5-5 8 4 12" fill="none" stroke="#E76F00" stroke-width="1.6" stroke-linecap="round"/><path d="M18 20h18c-1 8-4 10-9 10s-8-2-9-10zm18 2h3c2 0 2 5-3 5" fill="none" stroke="#5382A1" stroke-width="1.7"/><text x="27" y="39" class="stackLabel">JAVA</text></g>
    <g transform="translate(892 571)" aria-label="FastAPI"><title>FastAPI</title><rect width="54" height="42" rx="9" class="stackTile"/><circle cx="27" cy="18" r="13" fill="#05998B"/><path d="M29 7 20 19h7l-2 10 10-14h-7z" fill="#fff"/><text x="27" y="39" class="stackLabel">FASTAPI</text></g>

    <!-- Row 2: data, automation and integration -->
    <g transform="translate(430 623)" aria-label="SQL"><title>SQL</title><rect width="54" height="42" rx="9" class="stackTile"/><ellipse cx="27" cy="10" rx="12" ry="5" fill="#3fb950"/><path d="M15 10v16c0 3 5 5 12 5s12-2 12-5V10c0 3-5 5-12 5s-12-2-12-5zm0 8c0 3 5 5 12 5s12-2 12-5" fill="none" stroke="#3fb950" stroke-width="1.7"/><text x="27" y="39" class="stackLabel">SQL</text></g>
    <g transform="translate(496 623)" aria-label="SQLite"><title>SQLite</title><rect width="54" height="42" rx="9" class="stackTile"/><ellipse cx="23" cy="11" rx="9" ry="4" fill="#0F80CC"/><path d="M14 11v15c0 3 4 4 9 4s9-1 9-4V11c0 2-4 4-9 4s-9-2-9-4z" fill="#44A2D4"/><path d="M36 7c-7 5-9 12-10 21 5-8 8-10 13-14z" fill="#fff" stroke="#0F80CC" stroke-width="1"/><text x="27" y="39" class="stackLabel">SQLITE</text></g>
    <g transform="translate(562 623)" aria-label="Excel and VBA"><title>Excel and VBA</title><rect width="54" height="42" rx="9" class="stackTile"/><rect x="17" y="7" width="22" height="24" rx="2" fill="#217346"/><path d="M24 11h12v16H24z" fill="#33A867"/><text x="23" y="25" text-anchor="middle" fill="#fff" font-family="Arial,sans-serif" font-size="14" font-weight="900">X</text><text x="27" y="39" class="stackLabel">EXCEL/VBA</text></g>
    <g transform="translate(628 623)" aria-label="Git and GitHub"><title>Git and GitHub</title><rect width="54" height="42" rx="9" class="stackTile"/><circle cx="27" cy="18" r="13" fill="#24292F"/><path d="M21 14c0-6 12-6 12 0 0 4-2 5-3 6 3 1 4 4 3 8-2 1-4 1-6 1s-4 0-6-1c-1-4 0-7 3-8-1-1-3-2-3-6z" fill="#fff"/><text x="27" y="39" class="stackLabel">GITHUB</text></g>
    <g transform="translate(694 623)" aria-label="GitHub Actions"><title>GitHub Actions</title><rect width="54" height="42" rx="9" class="stackTile"/><circle cx="18" cy="11" r="4" fill="#2088FF"/><circle cx="36" cy="25" r="4" fill="#2088FF"/><path d="M18 15v5c0 5 5 7 14 7M21 11h11c3 0 4 2 4 6" fill="none" stroke="#2088FF" stroke-width="2"/><path d="m29 8 5 3-5 3z" fill="#fff"/><text x="27" y="39" class="stackLabel">ACTIONS</text></g>
    <g transform="translate(760 623)" aria-label="Model Context Protocol"><title>Model Context Protocol</title><rect width="54" height="42" rx="9" class="stackTile"/><path d="M18 25V13a5 5 0 0 1 10 0v10a4 4 0 0 1-8 0V15a3 3 0 0 1 6 0v7" fill="none" stroke="#3fb950" stroke-width="2.2" stroke-linecap="round"/><path d="M31 11h7v7" fill="none" stroke="#A371F7" stroke-width="2"/><path d="m34 15 4 3-4 3" fill="none" stroke="#A371F7" stroke-width="2"/><text x="27" y="39" class="stackLabel">MCP</text></g>
    <g transform="translate(826 623)" aria-label="Terminal and command line"><title>Terminal and command line</title><rect width="54" height="42" rx="9" class="stackTile"/><rect x="13" y="7" width="28" height="23" rx="4" fill="#24292F" stroke="#3fb950"/><path d="m18 14 5 4-5 4M26 23h9" fill="none" stroke="#F0F6FC" stroke-width="2" stroke-linecap="round" stroke-linejoin="round"/><text x="27" y="39" class="stackLabel">TERMINAL</text></g>
    <g transform="translate(892 623)" aria-label="MCP-enabled AI workflows"><title>AI workflow integrations</title><rect width="54" height="42" rx="9" class="stackTile"/><path d="M27 5 30 14 39 17 30 20 27 29 24 20 15 17 24 14z" fill="#A371F7"/><circle cx="38" cy="8" r="3" fill="#3fb950"/><circle cx="16" cy="27" r="3" fill="#39C5CF"/><text x="27" y="39" class="stackLabel">AI TOOLS</text></g>
  </g>

  <!-- EMERALD_OBSERVATORY_THEME_START -->
  <style>
    :root{color-scheme:light dark}
    .blue,.label,.handle{fill:#3FB950!important}
    .ascii{fill:#2F8F46!important;font-family:"IBM Plex Mono","JetBrains Mono",Consolas,Menlo,monospace}
    .white,.value,.stackLabel{fill:#3A434B!important}
    .muted,.rule{fill:#66707A!important}
    @media (prefers-color-scheme:dark){
      .white,.value,.stackLabel{fill:#E6EDF3!important}
      .muted,.rule{fill:#A8B3BC!important}
      .ascii{fill:#7EE787!important}
      .blue,.label,.handle{fill:#56D364!important}
    }
  </style>
  <!-- EMERALD_OBSERVATORY_THEME_END -->
</svg>
